<svg width="519" height="542" viewBox="0 0 519 542" fill="none" xmlns="http://www.w3.org/2000/svg">
<g clip-path="url(#clip0_916_8324)">
<path d="M381.943 256.012V256.488L382.023 256.057L381.943 256.012Z" fill="white"/>
<path d="M325.661 212.993C325.99 197.639 326.268 182.295 326.406 166.941C326.406 166.824 326.406 166.699 326.406 166.582C325.794 174.238 325.487 180.263 325.487 184.656C325.083 188.637 324.881 194.413 324.881 201.985C324.542 206.879 324.343 213.729 324.291 222.492C326.892 219.655 325.591 216.18 325.661 212.993Z" fill="white"/>
<path d="M457.422 262.107C456.997 249.537 456.2 237.039 456.078 224.504C455.61 177.106 457.032 129.698 454.657 82.3266C454.31 75.4219 453.92 68.4096 452.333 61.6755C449.732 50.8113 442.511 42.4162 434.205 34.8292C430.174 31.1389 426.247 27.3409 422.068 23.7674C419.899 21.8202 417.512 20.1501 414.959 18.7932C409.592 16.0996 404.061 13.7292 398.487 11.3858C395.392 10.0377 392.204 8.93027 388.95 8.07261C376.076 4.84925 362.864 4.09504 349.625 3.66406C348.538 3.66582 347.452 3.77102 346.383 3.97832C336.422 5.63938 326.443 7.21065 316.517 9.02435C304.492 11.2152 292.823 14.4116 283.286 22.1961C268.479 34.2635 259.211 49.3747 255.683 67.6553C253.281 80.2884 250.819 92.8676 250.81 105.788C250.81 118.179 250.42 130.578 250.247 142.978C250.322 144.065 250.499 145.141 250.776 146.192C251.643 132.5 252.041 118.933 252.44 105.366C252.819 93.552 254.411 81.8134 257.191 70.349C260.98 54.5734 267.378 40.0997 279.506 28.149C286.902 20.8852 295.77 16.6293 305.766 14.0614L306.131 14.8875C302.801 16.764 299.49 18.6675 296.135 20.5081C280.72 28.9391 270.325 41.213 265.063 57.3208C263.277 62.7889 262.029 68.4275 260.546 73.9943C256.734 88.252 254.855 102.99 254.963 117.784C255.084 139.332 254.85 160.881 254.729 182.43C254.651 195 254.634 207.571 254.365 220.087C254.009 237.048 253.325 254.009 253.038 270.978C252.929 275.123 253.408 279.261 254.46 283.261C257.226 293.219 260.33 303.104 263.685 312.891C264.915 316.285 266.694 319.436 268.947 322.211C277.348 332.743 287.378 341.219 299.828 346.543C302.581 348.572 305.573 350.228 308.731 351.472L309.668 351.841C293.36 347.288 279.498 339.216 269.155 325.919C262.462 317.317 258.752 307.567 255.769 297.403C251.781 283.845 248.591 270.278 249.874 256.02C250.741 246.323 251.287 236.572 251.4 226.839C251.625 207.086 251.504 187.261 251.4 167.472C251.4 162.758 250.949 158.035 250.706 153.312C250.23 172.967 250.212 192.594 250.247 212.213C250.247 214.556 250.845 216.917 250.689 219.252C250.377 223.948 249.527 228.617 249.267 233.322C248.496 247.463 247.169 261.622 249.267 275.746C250.281 282.3 251.615 288.797 253.264 295.212C254.655 300.518 256.322 305.742 258.258 310.862C259.515 314.664 261.196 318.301 263.268 321.699C266.051 325.937 269.537 329.78 272.866 333.686C280.807 343.014 291.072 349.246 302.853 353.349C310.941 356.031 319.287 357.786 327.744 358.584C333.772 360.343 341.369 361.223 350.536 361.223L365.083 360.685C384.486 359.595 401.666 353.274 416.623 341.722C427.934 332.695 435.613 322.043 439.658 309.766C444.912 292.072 447.542 275.638 447.548 260.464V202.013C446.841 198.628 446.435 195.184 446.334 191.723C446.422 187.004 446.828 182.297 447.548 177.636V171.683L448.154 132.131C448.154 124.553 447.75 113.54 446.941 99.0898C446.53 97.2941 446.126 95.0374 445.727 92.3199C445.292 89.1799 445.089 86.0102 445.12 82.8383C444.04 71.8374 441.384 61.0645 437.239 50.8741C436.657 48.3888 435.392 46.1311 433.598 44.3735C427.439 34.9286 419.373 26.9818 409.957 21.0828C399.848 14.5822 389.733 10.6106 379.613 9.16801C370.146 8.43774 362.991 8.07261 358.148 8.07261H358.243C363.086 8.07261 370.363 8.43475 380.073 9.15903C390.164 10.6016 400.278 14.5732 410.416 21.0738C419.833 26.975 427.902 34.9212 434.066 44.3646C435.858 46.1227 437.12 48.3805 437.699 50.8652C441.85 61.0538 444.509 71.8273 445.588 82.8294C445.557 86.0013 445.76 89.171 446.195 92.3109C446.585 95.0045 446.993 97.2761 447.4 99.0808C448.209 113.531 448.614 124.544 448.614 132.122L448.007 171.674V177.627C447.287 182.288 446.882 186.995 446.793 191.714C446.894 195.175 447.301 198.619 448.007 202.004V260.509C448.007 275.683 445.38 292.117 440.126 309.811C436.081 322.094 428.402 332.746 417.092 341.766C410.38 346.977 403.008 351.207 395.184 354.337L401.304 352.909C413.459 350.229 424.443 343.529 432.601 333.82C441.964 322.75 446.039 309.677 449.073 296.208C450.036 291.997 450.738 287.813 453.408 284.904C453.72 282.435 453.304 280.128 454.275 278.763C458.116 273.573 457.613 267.836 457.422 262.107ZM385.725 37.2983C392.592 40.2014 396.837 42.3683 398.461 43.7989C404.524 46.702 408.569 51.0357 410.598 56.8001C412.199 61.493 414.222 68.5353 416.667 77.927C417.067 79.156 417.067 80.487 416.667 81.716C415.032 74.8316 412.373 68.2524 408.786 62.2142C409.592 61.496 409.393 60.2389 408.179 58.4252C407.364 58.4252 406.966 57.8865 406.966 56.8001C406.787 55.4159 406.346 54.0818 405.669 52.874C404.993 51.6662 404.093 50.6083 403.021 49.7608C400.229 47.5621 397.292 45.5699 394.23 43.7989C392.609 43.0806 391.1 42.4431 389.687 41.9044C388.274 41.3657 386.748 40.7372 385.136 40.0099C381.09 37.4839 374.623 35.8587 365.733 35.1344C365.186 34.805 364.536 34.7085 363.921 34.8651C363.539 35.0388 363.126 35.1305 362.708 35.1344C356.639 35.1344 351.992 35.323 348.759 35.6732C347.281 35.7495 345.833 36.1343 344.502 36.8045L342.681 37.3432C341.467 37.7143 339.647 38.1663 337.219 38.699C335.143 39.1293 333.111 39.7636 331.151 40.5935C322.442 43.6385 314.692 49.0681 308.723 56.3063C304.674 60.634 302.047 66.2457 300.833 73.0964C298.007 85.0142 295.785 94.9446 294.167 102.888C293.424 105.729 292.917 108.631 292.649 111.561C292.441 114.093 292.346 116.051 292.346 117.514H291.739C291.739 111.379 292.144 106.865 292.953 103.974C294.907 91.6752 297.744 79.5443 301.44 67.6823C302.654 62.6243 305.483 57.7488 309.928 53.056C316.395 47.2856 322.259 43.1315 327.518 40.5935C335.61 36.2598 346.319 33.7308 359.647 33.0065C369.756 32.2583 378.449 33.6889 385.725 37.2983ZM367.519 30.7977V30.259C369.355 30.1989 371.19 30.3799 372.981 30.7977V31.3365C371.166 31.4003 369.35 31.2192 367.58 30.7977H367.519ZM382.682 33.4913C383.072 33.4913 383.289 33.3118 383.289 32.9436C386.919 34.0271 391.566 36.3765 397.23 39.9919L396.623 40.5307L382.682 33.4913ZM405.726 44.8853C410.581 48.4768 413.612 52.9901 414.82 58.4252L405.726 44.8853ZM416.649 260.482C415.834 265.546 415.025 273.13 414.222 283.234H413.008C414.621 255.795 415.632 235.572 416.043 222.565L417.256 257.78H417.863C418.299 253.461 418.502 249.12 418.47 244.778C418.434 240.436 418.636 236.095 419.077 231.777C419.88 235.369 419.88 243.854 419.077 257.232C418.273 270.61 417.262 278.377 416.043 280.532C416.03 273.804 416.64 267.09 417.863 260.482H416.649ZM413.008 138.057V140.751H411.794L411.196 139.126L409.983 112.037L408.162 98.4972L408.769 94.6992V92.0056C408.178 87.4502 407.368 82.9283 406.341 78.4567L399.657 56.2614C398.033 52.6699 395.002 49.9613 390.563 48.1356C384.893 45.6156 380.142 43.7181 376.31 42.4431C372.292 41.1677 368.074 40.7074 363.887 41.0873C352.975 41.0873 344.484 42.3533 338.416 44.8853C331.492 47.0892 325.093 50.7788 319.638 55.7137L312.364 62.2142C317.219 53.9179 325.31 47.5999 336.639 43.2602C343.093 40.9142 349.818 39.4562 356.639 38.9235C359.855 38.4936 363.098 38.3135 366.34 38.3847C369.571 38.3847 371.999 38.7439 373.623 39.4622C380.257 41.4977 386.739 44.0335 393.016 47.0492C397.871 48.8449 401.917 53.5408 405.154 61.1368C408.795 72.3303 411.017 85.1489 411.82 99.5926L413.008 138.057ZM411.794 70.34C414.222 78.6543 415.84 90.9252 416.649 107.153H415.436C414.621 90.9192 413.407 78.6483 411.794 70.34ZM392.999 54.3669C390.383 51.9943 387.539 49.9063 384.512 48.1356C387.338 48.4948 390.47 50.1199 393.909 53.0111C397.348 55.9022 398.865 58.7904 398.461 61.6755C396.899 59.0431 395.068 56.5927 392.999 54.3669ZM323.886 227.441C323.886 216.253 324.088 207.765 324.493 201.977C324.493 194.399 324.695 188.623 325.099 184.648C325.099 179.596 325.504 172.371 326.313 162.973V141.855C326.332 141.555 326.288 141.254 326.183 140.973C326.078 140.693 325.916 140.439 325.706 140.23C325.089 139.655 324.605 138.943 324.29 138.147C323.974 137.351 323.836 136.492 323.886 135.633V131.027C323.407 127.802 323.204 124.539 323.279 121.276C322.809 118.231 322.606 115.147 322.672 112.064C322.607 108.981 322.81 105.898 323.279 102.852L325.099 93.101C325.498 91.3053 325.906 89.0426 326.313 86.3311C326.849 83.103 327.658 79.9302 328.732 76.8495C329.858 73.3941 331.726 70.2477 334.194 67.6464C334.79 66.766 335.64 66.103 336.621 65.7519L339.647 64.3961C345.399 61.8479 351.597 60.555 357.853 60.5981H358.104C351.907 60.5719 345.769 61.8615 340.072 64.3871L337.037 65.7429C336.056 66.094 335.206 66.757 334.61 67.6374C332.147 70.2415 330.283 73.3873 329.157 76.8406C328.076 79.9197 327.264 83.0929 326.729 86.3221C326.322 89.0157 325.914 91.2963 325.516 93.092L323.704 102.843C323.313 105.249 323.115 107.685 323.114 110.125C323.515 111.895 323.773 113.697 323.886 115.512C323.834 118.421 323.785 121.333 323.738 124.248C323.753 126.523 323.945 128.793 324.31 131.036V135.642C324.26 136.5 324.396 137.359 324.71 138.155C325.023 138.951 325.506 139.663 326.122 140.239C326.223 140.328 326.31 140.43 326.383 140.545C326.383 136.208 326.382 131.871 326.53 127.534C326.868 114.12 327.709 100.706 328.498 87.3008C329.157 76.1312 338.234 67.0448 349.305 64.0818C351.671 63.6329 353.865 63.3007 355.841 63.0852C358.398 62.9718 360.958 63.2134 363.453 63.8035C367.788 64.8181 372.218 64.9976 376.345 67.2423C379.136 68.7507 380.992 70.2771 381.729 73.0695H381.451C382.665 81.0127 383.272 85.1668 383.272 85.532C383.662 88.4231 384.139 91.404 384.78 94.5107C385.422 97.6173 385.89 100.742 386.297 103.992V106.686L385.691 118.062L386.297 150.565C386.269 154.263 385.976 157.955 385.422 161.609C384.907 164.741 384.603 167.906 384.512 171.081C384.107 178.671 383.905 190.23 383.905 205.757L383.307 223.634C383.307 231.212 382.902 242.947 382.093 258.839C381.945 260.94 381.737 263.131 381.486 265.402L381.928 256.478C380.74 262.691 379.388 268.886 378.46 275.135C377.099 284.186 371.715 290.462 363.809 295.158C358.971 298.022 353.709 299.306 348.16 297.941C343.63 296.996 339.214 295.539 334.991 293.596C329.139 290.642 327.735 284.859 327.449 279.23C326.851 267.432 326.721 255.616 326.435 243.809C326.357 240.415 326.435 237.021 325.568 233.609V259.925L324.857 260.006V272.945C325.126 278.037 325.734 283.104 326.677 288.11C327.533 292.204 329.185 296.074 331.532 299.486C332.163 300.498 332.937 301.406 333.83 302.179C335.079 302.475 336.354 302.638 337.636 302.664C342.924 302.79 348.23 302.736 353.527 302.583C357.099 302.485 360.662 301.982 364.242 301.838C369.505 301.623 373.423 299.683 376.197 296.02C374.464 299.797 371.161 302.41 366.288 303.858C363.786 304.613 361.248 305.237 358.685 305.726L351.515 306.543H350.527C346.435 306.482 342.363 305.936 338.39 304.918C335.435 304.05 332.864 302.146 331.116 299.531C328.771 296.119 327.122 292.248 326.27 288.155C325.339 283.133 324.745 278.051 324.493 272.945V251.279L323.886 227.441ZM319.031 192.226L320.851 156.473C321.25 157.2 321.458 160.45 321.458 166.224C321.458 180.314 320.649 188.982 319.031 192.226ZM382.093 73.0515H382.492L383.107 75.0628C383.046 74.4253 382.977 73.725 382.899 72.8899C382.953 72.9518 383.002 73.0179 383.046 73.0875C383.792 74.967 384.483 76.9423 385.118 79.0134H383.905L382.093 73.0515ZM352.382 44.3197C353.189 43.9695 355.807 43.6014 360.263 43.2422C363.69 42.8752 367.144 42.8752 370.571 43.2422L352.382 44.3197ZM359.049 55.6957H363.904V57.3208C361.57 57.3769 359.241 57.5597 356.925 57.8685C353.9 58.2277 351.368 58.5958 349.348 58.946C347.328 59.2962 342.681 60.7417 335.407 63.2827L336.621 61.6576C342.684 58.4192 350.16 56.4379 359.049 55.7137V55.6957ZM377.203 301.111L380.844 292.446L381.451 294.61C381.451 296.406 380.035 298.573 377.203 301.111L371.134 306.498L369.921 305.412L377.203 301.111ZM388.725 139.683H388.118C388.118 129.573 387.916 121.989 387.511 116.931H388.725V139.683ZM388.118 160.809L388.725 167.849L387.511 199.813L386.904 215.526V235.566L386.297 237.73C385.483 236.294 385.078 228.71 385.084 214.978C385.084 204.509 385.373 193.767 385.951 182.753C386.529 171.74 387.263 164.425 388.153 160.809H388.118ZM351.819 301.371C341.511 303.966 333.665 302.269 329.946 296.325C336.37 301.596 344.346 300.294 351.819 301.371ZM316.612 81.6981H317.219L313.578 94.6992H312.962L316.612 81.6981ZM327.527 327.661C328.812 328.189 330.127 328.639 331.463 329.008C333.133 329.471 334.686 330.304 336.014 331.45C338.436 332.892 341.467 333.434 345.109 333.075C346.935 332.324 348.911 332.044 350.865 332.258C353.085 332.447 354.602 332.536 355.408 332.536C364.813 332.928 374.221 331.832 383.307 329.286C391.797 326.395 398.261 321.879 402.7 315.737L403.914 313.573C409.168 307.803 411.794 300.581 411.794 291.908C411.739 289.941 412.388 288.022 413.615 286.52L414.222 288.146C414.867 287.176 415.283 286.062 415.436 284.895C415.436 292.126 414.93 297.905 413.919 302.233C412.907 306.561 410.595 311.074 406.983 315.773C405.769 316.857 404.151 318.482 402.128 320.649C400.376 322.606 398.326 324.253 396.059 325.524C393.632 328.056 390.196 329.852 385.751 330.911C374.833 334.503 364.719 336.298 355.408 336.298L349.339 335.212C348.126 334.862 347.311 334.862 346.912 335.212C342.866 335.583 338.219 334.862 332.971 333.048C327.709 331.252 323.877 329.986 321.45 329.259C320.362 328.999 319.353 328.467 318.508 327.712C317.664 326.956 317.01 325.999 316.603 324.922L327.527 327.661ZM418.47 196.024V165.146H419.077V196.024H418.47ZM418.47 293.533L420.291 284.321C419.476 292.264 418.667 298.402 417.863 302.736H417.256L418.47 293.533ZM419.684 158.646V115.305C420.487 118.202 420.892 124.883 420.897 135.346C421.007 143.132 420.601 150.917 419.684 158.646ZM421.496 265.905H422.103L420.897 279.445H420.291L421.496 265.905ZM421.496 63.3007C420.446 61.2395 419.634 59.0577 419.077 56.8001C419.476 56.8001 419.684 56.6205 419.684 56.2614L422.103 63.3007H421.496ZM419.684 106.641H418.47L417.256 87.6779H417.863L419.684 106.641ZM417.863 134.807L415.436 210.094C415.031 209.375 414.829 204.682 414.829 196.015C414.829 184.091 415.132 171.359 415.739 157.82C416.346 144.28 417.054 136.609 417.863 134.807ZM416.043 128.307L415.436 113.124L416.649 112.576L417.256 128.289L416.043 128.307ZM305.697 261.569H304.483C304.073 254.709 303.871 244.596 303.876 231.23L303.27 225.842C302.789 221.527 302.586 217.184 302.663 212.841C302.663 205.981 302.865 200.023 303.27 194.964C303.674 189.906 304.079 185.573 304.483 181.963C304.871 178.459 304.973 174.927 304.787 171.404C304.579 168.334 304.483 165.712 304.483 163.548C304.416 162.429 304.625 161.31 305.09 160.298C305.09 160.657 305.29 160.836 305.697 160.836C306.105 160.836 306.304 161.025 306.304 161.375V163C305.09 181.784 304.483 200.938 304.483 220.464C304.483 229.114 304.888 242.815 305.697 261.569ZM299.628 226.354L299.03 208.477L299.628 205.784H300.235L300.842 219.324C302.455 241.717 303.062 258.689 302.663 270.242C302.255 270.242 302.056 270.431 302.056 270.79L300.842 268.096V258.318L299.628 226.354ZM300.235 196.024V202.525C298.623 200.723 298.623 198.556 300.235 196.024ZM297.816 144.549V151.588H297.21V144.549H297.816ZM289.936 272.406C290.206 278.753 290.811 285.081 291.748 291.36C292.574 296.48 294.215 301.422 296.603 305.986C294.979 304.909 293.36 301.569 291.748 295.966C290.166 290.611 289.351 285.045 289.329 279.445C289.241 277.082 289.445 274.716 289.936 272.406ZM288.115 215.526V214.978L289.936 246.404H289.329C288.514 232.684 288.11 222.391 288.115 215.526ZM291.141 209.025C291.058 204.5 291.261 199.974 291.748 195.476V227.441C291.343 223.107 291.141 216.968 291.141 209.025ZM294.175 136.971L292.355 121.806H292.962L294.782 137.519L294.175 136.971ZM292.962 158.098V168.935H292.355V158.098H292.962ZM289.632 65.4645C288.211 70.5285 287.3 73.5454 286.902 74.6767C286.497 71.4264 287.407 67.1825 289.632 61.9449C291.858 56.7073 293.979 53.3672 295.996 51.9246C293.11 56.0077 290.955 60.5936 289.632 65.4645ZM283.867 247.481L283.26 248.567L282.654 235.028C281.839 222.757 281.434 213.727 281.44 207.939C281.44 202.552 281.844 194.788 282.654 184.648H283.867C283.406 186.595 283.202 188.597 283.26 190.601L282.654 206.852L283.867 247.481ZM300.235 328.738L291.141 318.449L291.748 317.91L300.825 328.2C300.435 328.2 300.235 328.388 300.235 328.738ZM296.603 328.738C296.603 329.106 296.395 329.286 295.996 329.286L285.688 316.824C285.688 316.464 285.887 316.285 286.295 316.285C292.756 323.863 296.192 328.014 296.603 328.738ZM278.397 126.143L279.611 135.346H278.397L277.79 126.143H278.397ZM274.816 180.311C274.877 183.395 274.674 186.477 274.209 189.523L272.389 211.728C273.192 192.95 273.597 177.603 273.603 165.685C274.281 170.532 274.686 175.416 274.816 180.311ZM266.433 145.079C266.433 141.954 266.433 138.83 266.433 135.705L266.927 139.144C266.869 141.132 266.689 143.114 266.39 145.079H266.433ZM282.619 159.723V153.222H283.226V159.723H282.619ZM288.081 303.284C284.838 294.61 283.22 282.693 283.226 267.53L283.833 266.444H284.439V270.251C285.243 280.367 286.052 287.771 286.867 292.464C287.315 295.55 288.13 298.566 289.294 301.443C290.497 304.514 291.303 306.588 291.713 307.665C295.354 315.608 301.62 323.555 310.509 331.504L315.364 334.754V335.293L312.329 333.668C300.614 324.97 292.543 314.842 288.115 303.284H288.081ZM354.775 344.451C351.533 344.451 346.276 344.089 339.005 343.365C334.162 342.646 327.29 340.479 318.389 336.864C317.904 336.324 317.272 335.949 316.577 335.787L317.184 334.7C317.806 335.162 318.537 335.442 319.3 335.508C320.062 335.595 320.791 335.876 321.424 336.325C330.717 340.665 341.43 342.832 353.561 342.826C357.614 342.885 361.666 342.706 365.699 342.287C370.143 341.928 377.218 340.662 386.922 338.489C391.777 337.412 397.233 334.344 403.29 329.286C414.601 320.259 421.27 308.886 423.299 295.167C425.896 277.216 427.516 259.128 428.154 240.989L427.547 226.911V218.785H428.761L429.368 239.364C428.553 258.519 427.541 272.786 426.333 282.166C426.215 285.25 425.911 288.324 425.423 291.369C424.845 295.709 424.137 299.599 423.299 303.041C422.491 306.431 421.057 309.626 419.077 312.451C410.176 327.649 397.848 337.226 382.093 341.183C373.151 343.36 363.995 344.457 354.81 344.451H354.775ZM420.256 317.362C410.569 333.243 395.611 342.814 375.383 346.076C390.34 341.743 402.064 335.421 410.555 327.113C419.444 318.817 424.9 307.803 426.923 294.072C427.726 295.52 427.423 298.77 426.012 303.822C424.727 308.591 422.801 313.149 420.291 317.362H420.256ZM428.743 300.303C427.928 305.175 427.119 308.336 426.316 309.784C426.715 305.816 427.726 299.495 429.35 290.821C429.775 292.267 429.584 295.391 428.778 300.303H428.743ZM430.555 287.032H429.35C430.148 278.359 430.55 272.038 430.555 268.069H431.769L430.555 287.032ZM431.769 259.943V210.094C432.578 215.158 432.983 223.104 432.983 233.932C433.006 245.503 432.613 254.173 431.804 259.943H431.769ZM368.75 21.5856C377.235 21.5856 386.532 24.1146 396.64 29.1726C403.099 32.0727 407.754 34.5598 410.589 36.7596C417.86 41.8236 423.114 49.0455 426.351 58.4252C426.369 59.331 426.47 60.233 426.654 61.1188C426.953 62.4605 427.465 63.7411 428.171 64.9079C429.945 69.5952 431.066 74.5199 431.5 79.5342C432.078 85.3165 432.584 89.8298 433.017 93.0741V95.7677H431.804C431.399 93.9719 430.995 91.9847 430.59 89.8058C430.149 87.1372 429.949 84.432 429.992 81.725C429.459 77.8753 428.648 74.0725 427.564 70.349C426.351 66.0212 425.339 62.5914 424.53 60.0594C422.103 49.2191 415.834 40.9108 405.726 35.1344C398.462 31.1493 390.851 27.8844 382.994 25.3836C375.814 23.2123 368.332 22.3018 360.861 22.69C348.325 23.4142 337.211 25.4015 327.518 28.6518C326.304 29.011 322.259 30.9953 315.381 34.6047C311.525 36.9465 307.962 39.7689 304.769 43.0088C301.302 46.4386 299.18 48.5127 298.406 49.231L297.192 49.7787L297.799 48.6923C308.717 37.1397 320.438 29.5557 332.963 25.9402C343.482 22.3308 355.411 20.8792 368.75 21.5856ZM353.293 18.892C350.692 19.2511 348.134 19.6192 345.715 19.9694C343.297 20.3196 338.225 21.2444 330.553 22.663C339.037 19.4127 349.152 17.7876 360.896 17.7876C358.442 18.1647 355.911 18.5238 353.293 18.8471V18.892ZM453.477 253.12C453.298 253.804 453.03 254.459 452.68 255.068L451.353 254.987C451.223 253.191 450.955 251.396 450.963 249.6C451.241 203.809 451.605 158.017 451.83 112.298C451.83 101.819 451.579 91.3232 450.911 80.872C450.192 69.6486 448.779 58.4252 441.375 48.9886C438.705 45.5677 435.41 42.5958 432.419 39.3993C431.121 38.1118 430.013 36.6323 429.133 35.0087C437.265 40.8718 444.166 47.5789 447.738 56.9258C451.039 65.3062 452.885 74.2242 453.191 83.2693C453.781 105.716 454.457 128.163 454.665 150.61C454.839 169.357 454.24 188.114 454.275 206.861C454.275 217.33 455.142 227.8 455.142 238.287C455.142 243.18 454.102 248.154 453.477 253.12Z" fill="white"/>
<path d="M232.289 95.3726C231.821 84.0324 231.197 72.6923 227.547 61.7293C226.247 57.9606 225.227 54.0945 224.496 50.1647C223.713 45.5992 222.018 41.2534 219.519 37.406C217.23 33.8863 214.812 30.4475 212.393 27.0086C203.455 14.3666 190.901 6.58206 175.218 3.71785C166.063 2.03883 156.743 1.19483 147.476 0.198195C144.745 -0.0891239 141.693 -0.169932 139.222 0.727939C137.687 1.28087 136.054 1.48005 134.437 1.31156C128.073 0.871598 121.658 0.270025 115.364 2.04781C105.524 4.85815 95.684 7.65053 85.9308 10.7123C78.7882 13.0754 72.1031 16.7226 66.1817 21.4867C55.7089 29.5676 49.6143 40.5575 43.5803 51.5475C39.3375 59.1851 36.5476 67.5943 35.3616 76.3197C34.7981 80.5218 31.0269 83.8888 31.7638 88.45C31.7638 88.6744 31.5384 88.9977 31.3303 89.2132C27.3943 93.2536 27.1429 98.1919 27.2643 103.319C27.5504 114.82 27.9925 126.331 27.9665 137.833C27.9145 163.665 27.4637 189.487 27.4897 215.319C27.4699 225.514 27.9503 235.703 28.9288 245.847C30.4547 261.263 32.5527 276.635 34.6507 291.997C35.1805 295.952 36.2215 299.814 37.7457 303.481C42.0111 313.672 49.0161 322.085 57.4949 329.519C60.3558 332.025 63.4161 334.458 65.6615 337.412C70.161 343.338 76.221 346.848 83.3213 349.084C87.8778 353.334 93.5861 356.03 99.672 356.806C114.93 359.14 130.31 360.397 145.768 358.404C156.839 356.994 167.442 354.301 176.787 348.141C179.563 346.482 182.494 345.12 185.535 344.074C191.343 341.838 196.987 339.378 201.651 335.293C211.994 326.251 219.407 315.154 222.918 302.493C222.978 302.287 223.03 302.081 223.091 301.865C223.448 300.853 223.717 299.81 223.897 298.749C226.803 287.432 228.735 275.87 229.671 264.199C230.98 247.589 230.538 230.852 230.807 214.179C230.725 213.24 230.545 212.312 230.269 211.413C229.682 212.783 229.432 214.283 229.541 215.777C229.541 225.528 229.715 235.279 229.463 245.021C229.056 260.76 227.591 276.401 223.906 291.809C223.516 289.518 223.348 287.193 223.403 284.868C224.275 279.096 224.833 273.278 225.076 267.441C225.635 264.077 225.971 260.678 226.082 257.268C226.828 224.944 226.88 192.621 227.166 160.298C227.166 159.023 226.949 157.748 226.828 156.419H217.612C217.378 159.041 217.161 161.402 216.953 163.763H216.346C216.173 161.339 215.999 158.915 215.826 156.518C215.092 156.306 214.345 156.15 213.589 156.051C205.189 155.817 196.779 155.449 188.37 155.449C181.703 155.449 175.027 155.943 168.352 156.123C165.474 156.203 162.595 156.212 159.682 156.221C160.187 156.342 160.678 156.517 161.147 156.742C159.292 155.889 157.316 155.638 153.085 157.209C150.484 157.945 133.292 154.632 134.159 156.096C132.425 156.096 136.015 162.444 134.159 162.453C134.003 162.453 133.752 163.683 133.05 163.306C133.726 163.629 133.969 162.408 134.116 162.408C135.98 162.408 132.382 156.042 134.116 156.042C133.249 154.587 150.467 157.891 153.05 157.155C154.104 156.75 155.189 156.435 156.293 156.212H155.192C152.452 156.212 149.686 156.473 146.964 156.302C141.702 155.961 136.465 155.404 132.053 155.009L125.741 161.923C125.556 162.982 125.434 164.053 125.377 165.128C125.108 177.528 124.796 189.918 124.718 202.318C124.718 204.661 125.689 207.005 126.383 210.103L125.854 211.09C127.649 213.892 130.327 214.592 133.518 214.538C139.751 214.43 145.985 214.448 152.218 214.493C153.848 214.493 155.478 214.807 157.168 214.978V253.497C157.482 252.07 157.708 250.625 157.844 249.169C158.217 239.005 158.503 228.841 158.841 218.641C158.849 217.746 159.121 216.875 159.622 216.145C160.714 230.511 159.353 244.814 158.911 259.126C158.486 268.324 156.732 277.403 153.709 286.062C154.865 275.18 156.021 264.295 157.177 253.407C156.943 254.251 156.657 255.086 156.475 255.939C154.29 266.031 152.244 276.141 149.894 286.188C148.698 291.288 145.048 294.422 139.569 295.167C135.565 295.749 131.527 296.049 127.484 296.065C118.615 296.065 110.015 289.708 108.333 281.474C106.833 274.121 106.131 266.615 105.186 259.162C103.688 248.041 103.183 236.8 103.677 225.582C104.406 211.297 105.03 197.039 104.692 182.7C104.362 168.558 105.498 154.381 105.923 140.221C106.4 124.58 106.677 108.939 107.319 93.3074C107.527 88.3422 107.908 83.1884 109.486 78.5105C113.595 66.2905 123.357 58.7035 137.506 60.9571L142.491 60.3376C136.101 57.5542 129.486 58.901 122.62 59.5385C129.278 53.002 141.537 53.8909 147.822 61.0829C148.282 61.6754 148.611 62.4656 149.218 62.8157C154.169 65.68 157.142 69.7742 158.139 75.1794C158.139 75.3051 158.477 75.377 158.867 75.5925C158.607 73.9942 158.373 72.5846 158 70.3938L161.26 73.5004C159.526 67.341 156.925 62.4027 156.674 56.8539C160.463 61.4151 163.939 66.1917 165.222 71.7765C167.676 82.4432 169.115 93.2626 168.083 104.261C167.78 107.485 167.823 110.753 167.797 113.994C167.874 114.793 168.04 115.579 168.291 116.338H169.427C170.719 112.701 169.964 108.814 170.138 105.061C170.32 101.083 170.38 97.0875 170.233 93.1099C170.122 89.1307 169.789 85.1615 169.236 81.2221C168.609 77.2782 167.74 73.3796 166.635 69.5498C165.578 65.7967 164.112 62.1423 162.829 58.4431L163.922 58.1468C169.817 66.7843 169.08 77.1458 171.724 86.6273C174.49 96.5039 171.022 106.38 171.837 116.257H177.195C177.264 115.682 177.333 115.126 177.403 114.578L179.137 115.009C179.18 115.44 179.223 115.853 179.267 116.293H181.954C182.006 116.051 182.058 115.808 182.119 115.566C182.648 115.62 183.211 115.664 183.801 115.691C183.801 115.844 183.879 116.006 183.914 116.158H227.582C227.721 115.952 227.998 115.718 228.024 115.458C229.647 103.141 229.48 90.6418 227.53 78.3759C225.909 68.2299 222.944 58.2456 220.1 48.3151C218.884 44.1378 217.015 40.1949 214.569 36.6428C206.385 24.8088 196.207 15.04 181.555 10.3801C180.493 9.90742 179.489 9.30454 178.565 8.58431L179.119 7.84806C180.142 8.14436 181.174 8.40474 182.18 8.74593C201.157 15.1657 214.257 27.6012 220.967 45.2803C228.596 65.3567 233.278 86.0886 230.911 107.718C230.767 110.41 230.767 113.108 230.911 115.799C231.647 114.906 232.047 113.768 232.038 112.594C232.151 106.847 232.523 101.119 232.289 95.3726ZM39.7571 301.73C36.0552 293.461 34.6247 284.779 33.6884 275.934C30.6627 246.826 28.4173 217.681 28.8942 188.41C29.1022 175.84 29.5877 163.27 29.7611 150.771C29.8218 146.057 29.423 141.326 29.0589 136.621C28.4087 128.324 29.7871 118.035 32.5267 112.648C35.1882 113.447 34.6941 115.566 34.6247 117.343C34.356 123.826 33.9398 130.318 33.6364 136.809C31.8475 174.577 32.0095 212.416 34.1219 250.166C34.8068 262.233 36.1852 274.291 37.8151 286.287C39.445 298.283 43.797 309.147 51.7296 318.233C51.5302 317.928 51.3395 317.623 51.1488 317.335C53.4472 320.934 56.0248 324.334 58.856 327.499C58.7433 327.383 58.6306 327.266 58.5265 327.14C49.4236 320.029 44.0398 311.302 39.7571 301.73ZM55.0414 69.6934C58.041 56.8898 62.7688 46.6481 69.2247 38.9683C76.9579 29.8279 84.4715 23.2436 91.7654 19.2151L102.724 14.8245C103.148 14.4654 103.469 14.3666 103.695 14.5462C103.92 14.7258 104.224 14.6449 104.657 14.2768V14.8245C104.657 15.1926 104.224 15.3722 103.374 15.3722C83.1855 23.0819 69.008 36.8134 60.8413 56.5666C55.6858 68.9811 52.4579 83.781 51.1575 100.966C50.2905 112.303 49.4236 128.947 48.5566 150.897V130.596C48.1462 111.938 50.3078 91.6374 55.0414 69.6934ZM46.0164 211.252C46.8776 193.695 47.3053 180.709 47.2995 172.293H47.9497C47.8517 174.706 48.0674 177.122 48.5913 179.476V203.072C48.4493 205.854 48.0162 208.612 47.2995 211.297L46.0164 211.252ZM47.2995 250.21H46.658V234.848L47.2995 250.21ZM45.3662 132.796C44.9529 125.573 45.063 118.327 45.6957 111.121C46.3372 102.143 47.0886 96.3812 47.9497 93.8372L45.3662 132.796ZM137.566 45.5497C139.018 44.9782 140.537 44.6098 142.083 44.4543C142.95 44.4543 143.583 45.1905 144.017 46.6451C141.83 46.5722 139.661 46.2039 137.566 45.5497ZM118.832 313.286C116.097 312.119 113.468 310.7 110.977 309.048L111.246 309.093C112.042 309.274 112.822 309.524 113.578 309.838L113.231 309.596L114.887 310.727L114.8 310.673L114.722 311.302C116.023 312.002 117.392 312.675 118.832 313.286ZM187.858 257.34L185.925 278.188C185.491 278.188 185.275 278.009 185.275 277.64C186.136 268.865 186.997 262.098 187.858 257.34ZM186.566 232.1V219.485H187.858C187.357 223.669 187.143 227.885 187.217 232.1H186.566ZM188.829 272.702C189.893 265.393 190.644 260.641 191.083 258.444C190.797 264.892 190.044 271.309 188.829 277.64C187.739 282.777 185.654 287.63 182.7 291.908C185.856 285.946 187.934 279.437 188.829 272.702ZM189.15 244.724V203.027C189.15 203.395 189.575 203.575 190.433 203.575L189.15 244.724ZM214.933 285.874L215.583 284.231L217.517 268.868L218.808 269.416L215.583 284.231C215.5 285.45 215.282 286.655 214.933 287.822C214.584 289.218 214.155 290.591 213.65 291.935C205.472 312.424 191.286 327.972 171.091 338.579C159.492 344.433 145.739 347.725 129.833 348.456C127.557 348.39 125.291 348.114 123.062 347.63C120.262 347.082 118.225 346.624 116.933 346.256C121.002 346.698 125.093 346.881 129.183 346.803C132.188 346.803 137.133 346.438 144.017 345.708C144.801 345.728 145.577 345.54 146.271 345.16C146.842 344.851 147.382 344.484 147.883 344.065C149.202 343.971 150.503 343.694 151.75 343.239C153.208 342.736 154.73 342.457 156.267 342.413L155.625 343.517V344.065L169.158 338.022C179.897 333.641 190.858 324.862 202.042 311.688L205.267 305.654L214.933 285.874ZM205.908 276.545L207.209 262.278H208.5L206.558 276.545H205.908ZM222.64 207.939V217.995C222.559 228.44 222.357 236.617 222.033 242.525C222.033 246.188 221.924 251.949 221.704 259.809C221.598 266.728 220.843 273.62 219.45 280.388C218.736 282.626 218.197 284.92 217.837 287.248C217.286 290.49 216.078 293.575 214.292 296.298C213.858 297.394 213.329 298.866 212.679 300.689C212.166 302.271 211.405 303.754 210.425 305.079C207.081 310.429 203.421 315.56 199.467 320.442C190.855 331.055 179.677 339.103 165.933 344.586C159.494 347.513 151.545 349.524 142.083 350.619C151.533 349.524 159.483 347.513 165.933 344.586C179.683 339.097 190.858 331.049 199.458 320.442C203.415 315.559 207.077 310.429 210.425 305.079C211.406 303.756 212.168 302.272 212.679 300.689C213.321 298.893 213.858 297.433 214.292 296.307C216.078 293.58 217.286 290.493 217.837 287.248C218.199 284.921 218.739 282.627 219.45 280.388C220.842 273.623 221.597 266.734 221.704 259.818C221.924 251.952 222.031 246.191 222.025 242.534C222.452 234.848 222.669 223.325 222.675 207.966L222.033 204.15L222.64 207.741V207.939ZM213.191 318.844C212.922 319.275 212.653 319.697 212.324 320.119C212.636 319.697 212.904 319.275 213.191 318.844ZM53.7583 277.093C53.325 273.547 53.2176 269.966 53.4375 266.399C53.6442 262.829 53.5368 259.247 53.1168 255.696C52.6039 250.777 52.3867 245.829 52.4666 240.882C52.4666 235.764 52.8971 227.716 53.7583 216.738L54.3999 204.715C54.806 200.239 54.9132 195.739 54.7206 191.247C54.4952 187.404 54.3999 184.208 54.3999 181.64V170.102L52.4579 134.987C52.3897 133.848 52.614 132.711 53.1081 131.691L53.7583 132.796L55.6829 167.903C56.1338 185.86 55.7061 206.164 54.3999 228.814C53.9795 233.638 53.8695 238.485 54.0704 243.324C54.29 247.514 54.3999 251.081 54.3999 254.026L55.6829 278.718C56.9718 297.735 64.4854 313.28 78.2237 325.353C86.3788 333.033 93.6872 338.154 100.149 340.716C104.512 342.637 109.048 344.108 113.691 345.106C114.624 345.545 115.593 345.896 116.586 346.157C103.836 344.643 91.9186 339.181 80.8332 329.771C64.0664 316.237 55.0414 298.678 53.7583 277.093ZM80.1916 333.614C79.3247 332.877 77.1833 331.333 73.7502 328.945C70.422 326.714 67.7451 323.585 66.0083 319.894L60.1997 313.358C60.1997 312.99 60.4078 312.801 60.8413 312.801L66.043 319.939C75.0419 328.72 79.7553 333.279 80.183 333.614H80.1916ZM53.7583 119.624V108.643H54.4085C53.93 112.282 53.7127 115.952 53.7583 119.624ZM58.2751 180.527V172.841H58.9167V180.527H58.2751ZM66.0083 153.097L66.6585 161.869H66.0083C65.2545 159.006 64.821 156.062 64.7166 153.097H66.0083ZM64.7166 110.843L66.6499 88.8899H67.9329L65.3321 110.834L64.7166 110.843ZM65.3668 240.882L66.0083 250.758H64.7079L64.0663 240.882H65.3668ZM66.0083 254.601V285.326L64.7166 254.601H66.0083ZM78.2497 151.175C78.6898 152.513 78.9096 153.919 78.8999 155.332C79.6426 158.201 80.073 161.146 80.183 164.114L80.8332 178.928C80.8533 180.397 80.9604 181.864 81.1539 183.319C81.3948 184.785 81.2846 186.289 80.8332 187.701C79.9662 190.269 79.5356 193.929 79.5414 198.682V206.906C79.6138 209.667 79.3987 212.427 78.8999 215.14L79.5414 221.721C79.5609 222.029 79.5133 222.337 79.4023 222.623C79.2912 222.909 79.1195 223.165 78.8999 223.373C78.6768 223.577 78.502 223.831 78.3893 224.116C78.2765 224.401 78.2287 224.709 78.2497 225.016L76.9579 224.468V212.904L77.6081 182.17C77.6899 177.04 77.4727 171.91 76.9579 166.807C76.5244 158.038 76.3106 144.869 76.3164 127.301L76.9579 117.981C76.9239 117.02 77.1491 116.069 77.6081 115.233H78.2497L78.8999 117.981V143.22C78.0816 144.527 77.634 146.045 77.6081 147.602C77.626 148.822 77.8429 150.03 78.2497 151.175ZM76.9579 229.362L78.8999 247.463L78.2497 252.401C77.9977 252.699 77.8101 253.05 77.6995 253.429C77.5888 253.809 77.5577 254.208 77.6081 254.601C78.9987 256.794 79.6761 259.389 79.5414 262.008V269.416C80.0106 272.13 80.2254 274.884 80.183 277.64C80.1167 280.22 80.3348 282.798 80.8332 285.326C81.2551 287.158 83.1884 293.009 86.6331 302.88C87.1265 303.762 87.5582 304.68 87.9248 305.627C88.4057 306.82 89.0574 307.931 89.8581 308.922L94.3663 312.756L102.75 319.894C108.766 323.18 113.28 325.192 116.291 325.928C120.158 327.388 125.1 328.119 131.116 328.119C133.708 328.187 136.3 328.004 138.858 327.571C150.683 325.647 161.928 320.958 171.742 313.861C173.745 311.518 175.897 309.316 178.183 307.27L178.833 307.818L173.632 313.313C165.02 319.897 158.142 323.92 152.998 325.38C142.681 328.672 133.656 329.953 125.923 329.223C116.456 327.763 108.943 325.383 103.383 322.085C86.6215 311.849 77.5937 297.034 76.299 277.64C75.8781 272.625 75.771 267.586 75.9782 262.556C76.1863 258.354 76.299 254.969 76.299 252.401L75.6575 245.272V236.491L76.299 229.362H76.9579ZM86.6331 202.471C86.1535 204.816 85.9382 207.212 85.9915 209.609H84.6998C85.2159 207.269 85.4316 204.869 85.3413 202.471H86.6331ZM85.3413 173.945H85.9915V179.431L85.3413 173.945ZM85.9915 286.422L91.7914 301.784C91.358 301.054 90.2829 299.043 88.5664 295.751C86.9577 292.916 86.0633 289.708 85.9655 286.422L84.0236 279.84V258.444C84.0236 258.076 84.2403 257.887 84.6738 257.887L85.9915 286.422ZM94.9818 289.69C94.6217 288.63 94.403 287.525 94.3316 286.404V285.299C94.3355 285.344 94.3355 285.389 94.3316 285.434V286.422C94.4028 287.546 94.6216 288.654 94.9818 289.717C95.4083 290.96 95.4083 292.317 94.9818 293.56V293.506C95.3953 292.27 95.3953 290.926 94.9818 289.69ZM89.8581 206.314H89.2079V170.65H89.8581V206.314ZM93.3259 219.431C93.4184 217.384 93.5369 215.589 93.6814 214.044C94.1746 210.962 94.3894 207.839 94.3229 204.715H93.6814C92.8144 216.424 91.9475 224.837 91.0805 229.954C91.0805 229.739 91.1239 229.506 91.1499 229.281C91.8434 224.899 92.5399 218.348 93.2392 209.627L93.9155 186.668H95.1985C94.898 197.604 94.609 208.534 94.3316 219.458L93.3259 219.431ZM96.2649 119.678C95.9932 134.888 95.7274 150.101 95.4673 165.317C93.456 157.667 93.8981 136.244 96.3082 119.678H96.2649ZM96.9498 66.4431C97.3746 66.4431 97.5913 66.2636 97.5913 65.8954H98.2415C97.8081 67.359 97.3746 68.6429 96.9498 69.7383C96.525 70.8337 96.0828 71.9291 95.658 73.0335C92.139 83.6694 89.9707 94.7343 89.2079 105.949C88.786 117.293 88.5722 134.301 88.5664 156.976L89.2079 164.661H88.5664C87.6994 153.689 87.2688 145.641 87.2746 140.518C87.2746 126.99 87.4914 116.93 87.9248 110.34C89.6356 92.0235 92.6439 77.3912 96.9498 66.4431ZM89.2079 55.4711C90.4968 54.0166 92.5399 51.9216 95.3373 49.1861C98.1346 46.4505 100.605 44.164 102.75 42.3263C102.75 42.6944 102.966 42.883 103.4 42.883L89.8581 55.974C89.4247 55.974 89.2079 55.7944 89.2079 55.4263V55.4711ZM87.9248 223.373V256.289C87.4178 251.003 87.2007 245.691 87.2746 240.379C87.1868 234.687 87.4039 228.995 87.9248 223.328V223.373ZM84.0496 148.751H83.408C83.408 134.481 83.6219 123.688 84.0496 116.374V148.751ZM94.3663 305.124C99.1198 310.275 104.548 314.708 110.492 318.296C114.358 320.487 121.45 321.947 131.767 322.678C129.885 323.293 127.937 323.664 125.967 323.782C119.944 323.782 113.604 321.768 106.946 317.739C100.288 313.711 96.0944 309.491 94.3663 305.079V305.124ZM135.633 323.225C138.234 322.498 141.537 321.582 145.629 320.487C149.565 319.447 153.354 317.881 156.899 315.827C160.333 313.816 164.633 310.978 169.8 307.315C168.066 310.978 163.228 314.546 155.287 318.018C147.346 321.489 140.794 323.21 135.633 323.18V323.225ZM87.9508 331.459C87.5174 331.459 87.3006 331.647 87.3006 332.007L78.8999 324.285L79.5414 323.737L87.9508 331.459ZM118.294 349.021L107.336 346.274C107.761 346.274 107.977 346.094 107.977 345.726C109.711 346.462 113.15 347.193 118.294 347.917V349.021ZM127.319 351.212V350.664H137.636V351.212H127.319ZM200.143 294.7C198.848 299.824 194.765 306.043 187.893 313.358C181.157 321.662 172.511 328.075 162.751 332.007C150.273 337.861 138.451 340.24 127.284 339.145C118.262 338.42 111.815 337.139 107.943 335.302L103.435 333.659C103.435 333.29 103.643 333.102 104.076 333.102L109.876 334.754C120.193 336.945 127.706 338.04 132.417 338.04C136.087 337.901 139.747 337.536 143.375 336.945C157.131 334.03 168.953 328.726 178.842 321.035C188.292 312.253 194.308 304.939 196.892 299.091L200.117 294.7L203.983 284.823C203.978 286.984 202.686 290.262 200.108 294.655L200.143 294.7ZM185.309 299.091L189.185 291.953H190.468L186.601 299.091H185.309ZM184.026 267.809C183.159 278.434 180.151 287.215 175.001 294.152C171.837 298.688 167.904 302.591 163.393 305.672C153.914 312.592 144.447 316.234 134.992 316.599C133.952 316.952 132.848 317.047 131.767 316.877C130.911 316.695 130.039 316.602 129.166 316.599V316.051L132.391 314.408C139.608 314.431 146.71 312.542 153.024 308.922C154.313 308.563 157.752 306.366 163.341 302.332L163.982 301.784C166.132 301.784 167.745 301.156 168.82 299.863C169.516 298.987 170.269 298.162 171.074 297.394C177.091 290.45 180.746 282.953 182.041 274.902L183.324 260.635L183.974 258.992H184.668L184.026 267.809ZM142.118 318.844C151.568 316.282 159.081 312.439 164.659 307.315L176.25 296.298C176.25 295.571 176.9 295.023 178.183 294.655L176.865 296.846C176.432 297.211 171.704 301.784 162.682 310.565C155.376 316.419 146.36 319.894 135.633 320.99C133.292 321.408 130.917 321.591 128.541 321.537C117.791 321.537 108.336 317.515 100.175 309.47C95.4413 304.352 92.0024 297.217 89.8581 288.065C90.28 289.172 92.0139 293.198 95.0598 300.141C99.3137 308.952 107.035 315.171 118.225 318.799C121.565 319.879 125.042 320.433 128.541 320.442C133.103 320.462 137.65 319.91 142.083 318.799L142.118 318.844ZM105.697 304.9C106.859 305.987 108.081 307.003 109.356 307.944C108.066 306.992 106.833 305.961 105.663 304.855L105.697 304.9ZM109.486 308.051C109.971 308.401 110.466 308.743 110.968 309.084C110.431 308.698 109.937 308.357 109.451 307.971L109.486 308.051ZM60.6939 329.519C60.1997 329.008 59.7143 328.478 59.2461 327.948C59.7056 328.46 60.1911 328.99 60.6939 329.519ZM66.6152 335.248C64.6125 333.452 62.7226 331.656 60.9367 329.78C62.7341 331.659 64.6414 333.491 66.6585 335.275C67.9416 336.37 70.2044 338.48 73.4207 341.56L73.8456 341.946C73.6895 341.802 73.5334 341.677 73.3861 341.533C70.1552 338.432 67.8954 336.331 66.6065 335.23L66.6152 335.248ZM98.6924 355.046C93.4907 353.25 88.4017 351.032 83.2693 348.994L77.166 344.783L77.218 344.693L77.1313 344.631C79.2747 346.195 81.6063 347.463 84.0669 348.402C92.6671 352.053 99.1172 354.612 103.417 356.078L103.79 356.195C102.054 355.953 100.34 355.562 98.6664 355.028L98.6924 355.046ZM196.649 336.55C196.034 337.088 194.915 337.142 194.048 337.448C194.386 336.981 194.733 336.55 195.071 336.092H195.132C196.363 335.041 199.285 334.09 203.801 330.363C201.53 332.402 199.042 334.422 196.649 336.505V336.55ZM151.611 293.506C156.015 286.323 157.402 278.35 158.876 270.35C160.61 260.994 160.731 251.575 160.809 242.13C160.861 236.68 161.278 231.229 161.451 225.77C161.503 224.163 161.286 222.538 161.243 220.922C161.199 219.306 161.243 217.779 161.243 215.229C162.595 216.37 163.618 216.828 163.844 217.528C164.149 218.666 164.255 219.852 164.156 221.03C164.034 235.054 163.878 249.079 163.766 263.104C163.766 265.896 163.93 268.698 163.956 271.499C163.956 274.13 164.043 276.59 161.78 278.871C160.489 280.172 160.575 282.686 160.046 284.653L160.697 285.039L161.945 282.785C162.153 290.552 158.668 294.458 151.689 294.682C151.724 294.251 151.464 293.748 151.637 293.461L151.611 293.506ZM135.572 307.872C143.728 306.417 149.316 304.406 152.339 301.838C158.344 296.72 162.642 292.512 165.231 289.214C167.433 287.272 168.82 284.519 169.097 281.537C169.304 279.3 169.737 277.091 170.389 274.947C171.709 269.197 172.358 263.304 172.322 257.393C173.184 250.079 174.051 239.469 174.923 225.564L174.264 203.548C174.28 203.227 174.214 202.908 174.075 202.622C173.935 202.335 173.725 202.091 173.467 201.914C173.746 202.08 173.975 202.324 174.128 202.617C174.281 202.91 174.352 203.242 174.334 203.575L174.984 225.519C174.117 239.43 173.25 250.037 172.383 257.34C172.42 263.253 171.77 269.149 170.45 274.902C169.796 277.042 169.363 279.248 169.158 281.483C168.884 284.469 167.497 287.226 165.291 289.169C162.714 292.455 158.417 296.66 152.4 301.784C149.383 304.352 143.794 306.363 135.633 307.818C128.659 308.811 121.574 307.148 115.693 303.14C121.565 307.137 128.637 308.793 135.598 307.8L135.572 307.872ZM104.709 120.845C103.4 141.038 103.044 161.249 103.114 181.46C103.166 198.143 102.498 214.816 102.49 231.499C102.49 241.815 102.923 252.15 103.521 262.466C104.033 271.292 105.082 280.092 105.845 288.9C105.902 289.875 105.902 290.852 105.845 291.827C104.036 288.04 102.762 284.003 102.065 279.84L98.8831 244.222L98.2415 233.797C98.3731 229.925 98.8022 226.07 99.5246 222.269C100.263 216.079 100.694 209.855 100.816 203.62C100.816 196.67 100.386 186.243 99.5246 172.338L99.2299 165.002C99.2299 159.795 99.2299 154.596 99.3079 149.389C99.4553 136.818 99.8541 124.302 100.105 111.768C100.175 107.826 100.105 103.884 100.105 99.9427L100.972 99.7811C101.333 100.516 101.781 101.201 102.308 101.819C103.086 102.4 103.92 102.896 104.796 103.301C104.77 109.083 105.09 114.982 104.709 120.845ZM104.041 82.9191C102.68 76.4903 106.642 69.2804 112.988 66.2456L104.041 82.9191ZM175.27 113.896C175.386 113.957 175.496 114.029 175.6 114.111C175.488 114.028 175.369 113.955 175.244 113.896H175.27ZM188.136 74.8831C188.421 76.9647 188.552 79.0659 188.526 81.1682C188.526 84.1043 188.309 86.1065 187.884 87.2019C187.362 86.0003 187.141 84.6816 187.243 83.368C187.266 81.7013 187.481 80.0434 187.884 78.4297C188.163 77.2711 188.248 76.0715 188.136 74.8831ZM199.493 92.7328H200.776L202.709 107C202.709 107.368 202.276 107.548 201.426 107.548L199.493 92.7328ZM209.159 83.9606C210.049 74.2361 208.024 64.4638 203.359 55.974C203.359 55.2467 203.134 54.8786 202.709 54.8786L204.001 54.3309C209.584 64.9437 211.948 77.7443 211.092 92.7328L209.809 93.2895L209.159 83.9606ZM224.955 94.9326C224.69 93.283 224.8 91.5923 225.276 89.9943V102.565L222.675 100.374C223.474 99.7474 224.103 98.9164 224.498 97.9623C224.893 97.0083 225.042 95.9642 224.929 94.9326H224.955ZM191.144 109.2C190.71 105.177 189.635 99.1406 187.919 91.0897H189.211C189.635 92.8855 190.173 95.1212 190.823 97.6711C191.406 99.8182 191.729 102.032 191.786 104.261C191.839 105.938 191.601 107.611 191.083 109.2H191.144ZM187.884 16.4497C190.676 18.1796 193.213 19.7808 195.496 21.2533C193.225 19.7868 190.699 18.1915 187.919 16.4676C170.678 5.86676 152.391 1.11103 133.058 2.20045L127.25 2.75713C126.034 3.35735 124.725 3.72829 123.383 3.85253C116.933 4.22365 107.686 6.23488 95.6407 9.88623C89.6183 12.4482 82.9716 16.8387 75.7008 23.058C74.8339 23.7943 72.3602 25.988 68.2797 29.6394C64.3282 33.1094 61.1338 37.4094 58.908 42.2545C48.1578 61.2774 42.355 82.6767 41.4996 106.452C41.0662 112.306 40.8523 121.27 40.8581 133.344V160.226C40.8581 181.811 41.0719 197.906 41.4996 208.513L40.8581 213.452C40.3455 214.793 39.9141 216.167 39.5663 217.564C39.108 219.448 38.8922 221.386 38.9248 223.328C39.0156 225.224 39.4509 227.085 40.2079 228.814C41.0749 233.156 41.0749 237.635 40.2079 241.977C40.2018 243.85 39.876 245.707 39.2456 247.463C38.6113 249.218 38.2825 251.075 38.2746 252.949C37.4076 264.663 37.8382 274.908 39.5663 283.683L43.4329 301.236C45.3107 306.826 47.8469 312.155 50.9841 317.102C47.8359 312.15 45.2881 306.815 43.3982 301.219L39.5317 283.656C37.7977 274.875 37.3672 264.633 38.2399 252.931C38.2471 251.057 38.5759 249.2 39.2109 247.445C39.8397 245.689 40.1655 243.832 40.1732 241.959C41.0402 237.614 41.0402 233.132 40.1732 228.787C39.4152 227.059 38.9799 225.197 38.8901 223.301C38.8586 221.359 39.0743 219.421 39.5317 217.537C39.8794 216.14 40.3109 214.766 40.8234 213.425L41.4649 208.486C41.0315 197.88 40.8176 181.784 40.8234 160.199V133.317C40.8234 121.249 41.0373 112.288 41.4649 106.434C42.3261 82.6587 48.1289 61.2475 58.8733 42.2006C61.0945 37.3728 64.2799 33.0883 68.219 29.6304C72.2995 25.9851 74.7732 23.7913 75.6401 23.049C82.9399 16.8238 89.6009 12.4332 95.6234 9.87725C107.645 6.23189 116.893 4.22066 123.366 3.84355C124.704 3.69914 126.008 3.31003 127.215 2.69428L133.015 2.14658C152.365 1.07512 170.635 5.84281 187.824 16.4497H187.884Z" fill="white"/>
<path d="M359.009 434.567L356.651 434.037L357.804 435.375C353.825 438.823 349.889 442.325 345.857 445.71C340.508 450.199 334.431 452.138 327.608 450.603C321.227 449.175 317.118 444.56 316.762 437.835C316.485 432.511 316.936 427.142 317.074 421.79C317.155 421.051 316.95 420.308 316.502 419.725C313.667 424.52 310.867 429.341 307.998 434.091C304.53 439.909 301.105 445.764 297.325 451.402C296 453.363 294.1 454.831 291.907 455.586C287.043 456.942 283.237 453.018 283.237 446.994C283.237 442.504 283.489 437.943 283.576 433.418C283.662 429.461 283.703 425.508 283.697 421.557C283.62 420.626 283.466 419.704 283.237 418.8C275.435 422.581 271.334 429.575 266.384 435.914L263.41 435.411L258.287 443.707L259.023 444.282L261.685 440.762L262.734 441.436L253.856 457.292L251.793 455.03C249.253 459.564 246.999 464.008 244.303 468.192C243.262 469.8 241.208 470.688 239.612 471.91C238.399 470.015 236.673 468.318 236.093 466.208C235.512 464.098 235.963 461.503 235.963 459.133L234.931 458.522C234.545 459.125 234.231 459.773 233.995 460.453C232.772 465.84 228.177 468.381 224.788 471.793C213.734 482.926 200.782 479.048 196.733 463.64C196.525 462.832 196.334 462.015 195.979 460.569C194.964 461.764 194.245 462.706 193.456 463.514C188.332 468.605 183.573 474.199 177.938 478.599C171.921 483.304 165.055 484.175 158.475 478.913C157.888 478.595 157.269 478.348 156.628 478.177C155.189 479.972 153.698 481.768 152.198 483.564C149.217 487.33 145.259 490.134 140.789 491.645C135.483 493.387 125.348 490.917 123.45 483.77C122.8 481.301 122.921 478.626 122.479 475.878C122.643 472.125 122.609 468.345 123.016 464.619C123.588 459.393 124.499 454.213 125.236 449.005C125.224 448.401 125.154 447.799 125.028 447.209C124.284 447.861 123.581 448.559 122.921 449.301C113.775 461.176 105.846 474.004 99.2618 487.577C97.6331 490.868 95.7516 494.018 93.6353 496.996C91.598 499.905 88.5116 501.117 85.0785 501.045C79.9375 500.929 76.539 497.149 77.2066 491.582C78.0735 484.183 79.4433 476.839 80.7784 469.503C81.4546 465.795 82.5123 462.159 83.4573 458.495L82.4343 458.289C82.6481 456.044 83.016 453.818 83.5353 451.627C85.2692 445.755 87.1332 439.891 89.2572 434.154C92.4996 425.364 96.2795 416.771 99.2791 407.9C100.528 404.21 101.724 400.717 104.091 397.629C104.68 396.856 104.455 395.411 104.663 393.786C106.735 393.157 107.48 391.55 105.833 389.53C106.995 388.021 108.495 386.836 109.032 385.22C110.645 380.506 111.789 375.613 113.367 370.854C113.896 369.229 115.04 367.81 115.907 366.293L119.054 365.296L119.731 367.209H120.017C119.878 365.485 119.731 363.77 119.548 361.66L122.513 360.762C122.765 359.927 123.016 359.056 123.259 358.248C130.125 357.108 133.021 360.241 130.645 366.706C126.944 376.735 122.323 386.459 118.855 396.515C111.677 417.445 104.984 438.554 98.1348 459.609C97.5183 461.624 97.2569 463.738 97.3632 465.849C100.319 461.117 102.946 456.125 106.31 451.734C111.08 445.468 116.173 439.473 121.568 433.777C124.707 430.473 128.842 428.497 133.472 431.254C138.786 434.423 142.271 438.832 141.361 445.62C140.303 453.53 138.968 461.413 137.815 469.315C137.009 474.81 138.257 477.71 142.297 479.73C147.301 477.319 151.617 473.607 154.825 468.956C162.463 458.486 164.448 445.063 172.424 434.774C178.276 427.232 184.05 419.779 192.693 415.559C194.993 414.465 197.45 413.767 199.967 413.494C203.478 413.081 206.902 413.907 210.578 412.327C212.919 411.321 216.378 413.108 219.803 413.736L223.392 412.013C223.392 413.736 223.635 414.94 223.392 415.981C219.67 429.916 215.913 443.833 212.121 457.732C211.679 459.348 211.133 460.938 210.656 462.545C209.642 465.948 210.76 467.304 214.011 466.352C215.897 465.924 217.681 465.109 219.256 463.954C223.522 460.318 227.51 456.332 231.68 452.578C232.607 451.743 234.055 451.483 234.914 450.603C238.277 447.173 239.413 442.729 240.176 438.033C241.043 432.646 241.849 427.097 245.265 421.566C245.369 423.362 245.421 424.26 245.473 425.157C245.1 426.181 244.719 427.205 244.337 428.228L244.901 428.381C245.083 427.294 245.256 426.208 245.438 425.122L247.337 419.429V419.483C248.892 415.293 250.449 411.082 252.01 406.85C252.591 405.279 253.111 403.671 253.744 402.127C255.729 397.368 257.09 396.614 261.061 397.97C265.621 399.514 267.381 402.037 266.15 406.473C264.008 414.158 261.46 421.737 259.093 429.35C258.954 429.799 258.85 430.248 258.616 431.146L283.497 397.647L284.364 398.284L284.798 395.671C294.334 394.369 299.007 398.185 299.484 409.858C299.597 412.677 298.955 415.523 298.73 418.352C298.572 419.698 298.863 421.06 299.553 422.212C301.175 419.743 302.718 417.22 304.417 414.814C308.206 409.427 311.899 404.039 315.947 398.886C319.294 394.63 323.013 393.822 327.001 395.743C331.509 397.916 332.957 401.624 332.55 407.137C331.882 416.161 331.683 425.22 331.379 434.271C331.479 435.557 331.726 436.826 332.116 438.051L333.026 437.979C333.026 431.775 332.905 425.579 333.026 419.384C333.191 413.018 333.633 406.67 333.937 400.448C336.373 399.353 337.309 400.134 337.162 402.244C336.425 412.83 335.593 423.398 334.951 433.983C334.864 435.474 335.688 437.027 336.061 438.473C344.982 437.315 360.769 418.316 365.684 403.653L367.132 407.398C368.519 404.408 369.62 402.36 370.435 400.215C374.406 389.727 378.238 379.204 382.234 368.708C384.012 364.003 386.717 360.52 392.248 360.556C396.756 360.556 398.611 362.684 397.085 367.146C395.351 372.3 393.063 377.265 391.06 382.338C388.939 387.465 387.112 392.718 385.59 398.069C387.922 394.944 390.063 391.649 392.621 388.731C396.955 383.748 401.368 378.755 406.154 374.23C410.228 370.378 415.335 368.735 420.528 371.68C426.224 374.913 428.148 380.587 427.645 387.016C426.952 395.815 423.259 403.609 419.331 411.258L417.875 414.239L418.499 415.29L435.907 408.107C436.167 408.601 436.428 409.112 436.774 409.696C446.38 406.763 455.983 403.827 465.583 400.888C470.343 399.451 475.12 398.015 479.896 396.722C481.093 396.479 482.324 396.479 483.52 396.722C488.806 397.316 494.117 395.857 498.423 392.628L493.759 392.215L495.233 389.404C497.738 390.248 500.27 391.2 502.836 391.963C504.232 392.403 505.766 393.139 507.084 392.861C510.751 392.17 514.349 391.065 517.973 390.087L519.039 391.721C518.285 392.717 517.713 394.316 516.751 394.612C513.179 395.734 509.477 396.408 505.827 397.305C504.544 397.611 503.226 397.862 501.986 398.266C492.511 401.301 483.026 404.309 473.585 407.46C466.285 409.903 459.055 412.596 451.764 415.092C449.493 415.864 447.134 416.367 444.456 417.086C445.036 415.963 445.487 415.101 446.189 413.781L436.428 418.028C436.272 418.468 436.029 419.133 435.786 419.824C435.665 419.564 435.535 419.303 435.413 419.034L393.8 436.165L386.942 434.998C386.179 432.304 384.419 429.413 385.061 427.294C385.52 425.786 389.205 425.31 391.459 424.403C396.608 422.255 400.954 418.449 403.856 413.548C408.963 405.368 412.994 396.632 414.78 386.962C415.049 385.489 414.78 383.918 414.78 381.799C413.367 382.356 412.179 382.5 411.468 383.164C400.326 393.226 391.03 405.289 384.029 418.774V418.729C380.024 426.504 375.585 434.082 372.108 442.118C365.268 457.939 361.592 474.837 357.925 491.672C356.788 497.216 356.155 502.858 356.035 508.525C356.075 511.764 356.717 514.965 357.925 517.952C359.087 521.113 357.795 522.289 355.324 522.989C349.299 524.668 342.554 519.946 342.459 513.041C342.433 505.715 343.042 498.4 344.279 491.187C345.623 482.935 347.86 474.855 349.62 466.675C349.693 465.877 349.601 465.072 349.351 464.314C350.677 460.722 351.813 457.678 352.949 454.608C352.949 454.23 352.862 453.853 352.828 453.467C353.183 450.872 353.521 448.269 353.92 445.674C353.977 445.306 354.116 444.956 354.325 444.652C354.534 444.349 354.808 444.099 355.125 443.923V446.859L355.602 446.994L358.411 437V437.054C358.61 436.228 358.818 435.402 359.018 434.567L361.436 428.453L360.361 428.12C359.885 430.275 359.442 432.439 359.009 434.567ZM199.88 427.609C192.138 427.716 169.979 460.103 171.184 469.27C178.64 466.702 200.314 435.465 199.88 427.636V427.609ZM271.412 424.251L272.479 425.068L275.149 421.297L274.238 420.632L271.412 424.251ZM364.176 419.555L363.595 419.375C363.387 419.995 363.179 420.623 362.962 421.243L363.612 421.44C363.829 420.839 364.011 420.201 364.202 419.582L364.176 419.555ZM267.762 430.976L267.077 430.652L266.731 431.811L267.19 432.017L267.762 430.976Z" fill="white"/>
<path d="M67.4031 499.866C60.2334 505.666 54.0607 511.34 47.2118 515.946C43.3452 518.568 38.4642 519.969 33.8087 520.992C23.9862 523.174 13.9989 515.462 11.7622 504.723C9.34338 492.925 10.4011 481.181 12.7852 469.58C17.3271 447.376 25.0844 426.011 35.794 406.209C41.4986 395.596 47.6366 385.243 56.7742 377.306C62.0886 372.682 68.2353 370.33 75.1883 372C82.1412 373.67 86.4066 379.183 87.1435 386.958C88.2706 398.828 85.3229 409.746 79.6964 419.964C78.6301 422.091 76.9853 423.848 74.9654 425.018C72.9454 426.187 70.6389 426.719 68.3307 426.545C65.201 426.429 64.3861 425.172 65.3831 422.056C68.114 413.562 70.9489 405.113 73.5237 396.574C74.3907 393.836 75.5004 390.289 72.7088 388.395C69.7612 386.366 66.4668 388.287 64.4381 390.532C59.9473 395.497 55.3264 400.543 51.902 406.289C39.3312 427.371 31.0952 450.375 25.8328 474.465C24.5024 481.162 23.8285 487.982 23.8215 494.82C23.6134 505.72 29.8901 510.442 39.9987 507.39C46.5182 505.441 51.8153 501.329 56.7049 496.615C59.7652 493.679 62.9816 490.851 65.6431 487.556C68.6428 483.848 71.0876 479.672 74.0352 475.318L78.2399 476.754C77.8382 478.791 77.3141 480.801 76.6708 482.77C74.7635 487.708 72.5701 492.512 70.7061 497.459C69.8305 499.848 68.4867 500.306 67.4031 499.866Z" fill="white"/>
<path d="M186.77 541.08C187.203 540.236 187.446 539.114 188.122 538.593C190.957 536.429 194.043 534.607 196.791 532.308C198.794 530.674 200.138 528.052 202.279 526.759C206.553 524.164 211.148 522.135 215.639 519.953C227.378 514.252 239.159 508.667 250.863 502.894C265.064 495.899 279.325 489.022 293.344 481.632C304.614 475.688 315.555 469.062 326.626 462.714C328.837 461.448 330.874 459.76 333.206 458.844C334.663 458.261 336.518 458.745 338.347 459.446C334.879 462.84 334.732 467.922 329.851 470.346C318.26 476.101 307.215 483.042 295.979 489.542C293.595 490.925 291.306 492.496 288.974 493.978C288.065 494.654 287.106 495.255 286.105 495.774C283.322 496.959 280.478 498.018 276.976 499.365L275.008 498.117L271.471 501.547L271.982 502.337L275.008 500.838L275.554 501.906L268.497 505.722C268.757 503.926 268.87 503.244 269.165 501.233C241.153 513.911 213.602 525.933 187.801 541.888L186.77 541.08Z" fill="white"/>
<path d="M115.867 366.255C113.543 360.598 113.04 354.959 116.352 349.518C116.976 348.495 118.19 347.848 119.126 347.031L120.054 347.705C118.644 353.882 117.236 360.056 115.832 366.228L115.867 366.255Z" fill="white"/>
<path d="M384.013 418.768C386.986 415.778 389.899 412.725 392.977 409.861C393.922 408.963 395.318 408.595 396.505 407.984L397.251 409.125L385.261 422.593L384.047 421.901V418.687L384.013 418.768Z" fill="white"/>
<path d="M247.196 419.307L244.639 418.014L244.856 417.35L242.593 417.763L242.099 417.072C243.156 416.066 244.214 415.069 244.76 414.567C245.722 410.975 246.589 407.725 247.482 404.385C250.69 405.283 249.979 406.755 249.52 408.488C248.575 412.08 247.925 415.725 247.153 419.361L247.196 419.307Z" fill="white"/>
<path d="M396.135 407.044L407.327 393.334L408.194 394.124C407.327 397.482 405.81 400.257 402.585 401.873C401.865 402.239 401.313 402.884 401.05 403.668C400.4 406.452 398.562 407.17 396.135 407.044Z" fill="white"/>
<path d="M38.1945 392.783C38.8707 396.707 35.5936 401.618 31.7617 401.026L36.1918 394.696L36.8767 395.207L38.2292 392.819L38.1945 392.783Z" fill="white"/>
<path d="M476.637 394.699L468.201 397.545C468.054 397.087 467.915 396.647 467.768 396.18L476.186 393.334C476.342 393.792 476.489 394.241 476.637 394.699Z" fill="white"/>
<path d="M109.73 372.135C110.644 368.615 111.557 365.096 112.47 361.576L113.64 361.908C112.687 365.458 111.736 369.002 110.788 372.539L109.73 372.135Z" fill="white"/>
<path d="M61.6001 372.627C59.6177 373.955 57.6352 375.287 55.6528 376.622L54.9072 375.536L60.8632 371.441L61.6001 372.627Z" fill="white"/>
<path d="M485.848 392.12L479.866 394.23L479.467 393.098L485.535 390.898C485.613 391.302 485.726 391.716 485.848 392.12Z" fill="white"/>
<path d="M26.7773 416.708C27.7368 414.696 28.7049 412.685 29.6816 410.674L30.6526 411.222L27.9477 417.381L26.7773 416.708Z" fill="white"/>
<path d="M252.602 459.391C251.527 461.271 250.455 463.15 249.386 465.03L248.519 464.545L251.527 458.754L252.602 459.391Z" fill="white"/>
<path d="M457.136 401.168L450.045 403.386L449.732 402.246L456.876 400.234L457.136 401.168Z" fill="white"/>
<path d="M335.696 394.795C337.161 398.781 337.048 398.943 333.667 398.494C334.3 397.327 334.811 396.393 335.696 394.795Z" fill="white"/>
<path d="M238.805 426.201C239.302 424.603 239.79 423.004 240.27 421.406L241.362 421.721C240.934 423.337 240.513 424.956 240.096 426.578L238.805 426.201Z" fill="white"/>
<path d="M0.337891 492.249V487.76L1.53428 487.814L1.32621 492.384L0.337891 492.249Z" fill="white"/>
<path d="M161.047 448.348L162.469 443.32L163.76 443.742C163.197 445.367 162.642 446.984 162.079 448.6L161.047 448.348Z" fill="white"/>
<path d="M38.2163 392.825C38.7943 391.388 39.3954 389.948 40.0196 388.506C41.6061 391.244 40.323 392.277 38.1816 392.789L38.2163 392.825Z" fill="white"/>
<path d="M369.231 394.21L367.852 398.699L366.907 398.394C367.375 396.885 367.852 395.386 368.32 393.904L369.231 394.21Z" fill="white"/>
<path d="M232.891 447.881L234.087 442.494L234.893 442.674L233.827 448.052L232.891 447.881Z" fill="white"/>
<path d="M374.192 375.433C374.044 376.529 373.906 377.624 373.758 378.719L372.735 378.549L373.386 375.316L374.192 375.433Z" fill="white"/>
<path d="M238.922 429.993L237.63 433.665L236.65 433.288L238.064 429.643L238.922 429.993Z" fill="white"/>
<path d="M358.388 437.007L356.55 439.539L355.926 439.225L356.498 435.858L357.651 435.041C357.885 435.714 358.128 436.388 358.362 437.07L358.388 437.007Z" fill="white"/>
<path d="M1.71168 483.441L1.86773 486.135L0.844727 486.171V483.477L1.71168 483.441Z" fill="white"/>
<path d="M441.498 406.536L438.507 407.873L438.117 407.155L440.961 405.359C441.134 405.763 441.316 406.149 441.498 406.536Z" fill="white"/>
<path d="M183.363 415.236C182.817 415.865 182.271 416.493 181.716 417.113L181.109 416.583L182.731 414.59L183.363 415.236Z" fill="white"/>
<path d="M166.742 436.061L166.378 438.934H165.693V436.016L166.742 436.061Z" fill="white"/>
<path d="M81.5479 457.908C81.4698 458.68 81.3918 459.444 81.3225 460.216H80.6289V457.908H81.5479Z" fill="white"/>
<path d="M1.20506 498.367C1.39579 499.355 1.57785 500.342 1.76858 501.33L0.988324 501.573L0 498.646L1.20506 498.367Z" fill="white"/>
<path d="M24.0031 416.948L22.7113 418.124L22.1738 417.603L23.3616 416.221L24.0031 416.948Z" fill="white"/>
<path d="M9.58937 452.637L8.60972 454.567L7.85547 454.217C8.08955 453.535 8.32362 452.852 8.54903 452.17L9.58937 452.637Z" fill="white"/>
<path d="M189.135 409.725L190.782 409.51L190.929 410.102L189.343 410.713L189.135 409.725Z" fill="white"/>
<path d="M13.6484 439.57L13.4316 436.876L14.2119 436.777L14.6367 439.471L13.6484 439.57Z" fill="white"/>
<path d="M352.874 453.461C352.874 453.847 352.952 454.224 352.996 454.601L352.007 456.352L351.322 455.993C351.799 455.149 352.311 454.314 352.874 453.461Z" fill="white"/>
<path d="M6.34013 464.003L4.60623 464.138L4.51953 463.303L6.25343 462.988L6.34013 464.003Z" fill="white"/>
<path d="M44.2217 384.463L45.6868 383.17L46.285 383.807L44.9673 385.289L44.2217 384.463Z" fill="white"/>
<path d="M78.3066 462.541L79.1042 461.76L80.2139 462.909L79.4163 463.681L78.3066 462.541Z" fill="white"/>
<path d="M23.2305 425.944C23.2912 425.262 23.3432 424.58 23.4039 423.906H24.0021V425.998L23.2305 425.944Z" fill="white"/>
<path d="M488.083 391.475L489.652 390.793C489.739 391.008 489.834 391.233 489.93 391.448L488.386 392.185C488.265 391.933 488.17 391.691 488.083 391.475Z" fill="white"/>
<path d="M28.2139 407.02L29.2282 405.062L29.9911 405.476L29.0201 407.46L28.2139 407.02Z" fill="white"/>
<path d="M157.107 462.48V464.007L156.561 464.079L156.274 462.561L157.107 462.48Z" fill="white"/>
<path d="M74.9277 473.485C75.0925 472.937 75.2658 472.398 75.4306 471.859L75.9767 471.931L75.7513 473.727L74.9277 473.485Z" fill="white"/>
<path d="M251.495 401.727L251.088 402.122L250.715 401.494C250.88 401.413 251.062 401.242 251.2 401.278C251.339 401.314 251.391 401.566 251.495 401.727Z" fill="white"/>
<path d="M107.769 381.439L107.526 382.4H107.153V381.35L107.769 381.439Z" fill="white"/>
<path d="M109.25 378.998L108.505 378.944L108.661 378.217L109.372 378.495L109.25 378.998Z" fill="white"/>
<path d="M152.305 463.081L153.319 462.354L153.987 463.099L152.634 463.575L152.305 463.081Z" fill="white"/>
<path d="M271.41 424.279L274.236 420.688L275.147 421.352L272.477 425.123L271.41 424.279Z" fill="white"/>
<path d="M359.001 434.571C359.435 432.416 359.868 430.253 360.311 428.098L361.386 428.43L358.967 434.571H359.001Z" fill="white"/>
<path d="M364.192 419.596C364.002 420.224 363.819 420.853 363.629 421.481L362.979 421.284C363.195 420.664 363.403 420.036 363.611 419.416L364.192 419.596Z" fill="white"/>
<path d="M267.754 430.983L267.182 432.025L266.723 431.818L267.069 430.66L267.754 430.983Z" fill="white"/>
<path d="M245.312 425.006C245.13 426.092 244.957 427.179 244.774 428.265L244.211 428.112C244.592 427.089 244.974 426.065 245.347 425.042L245.312 425.006Z" fill="white"/>
</g>
<defs>
<clipPath id="clip0_916_8324">
<rect width="519" height="542" fill="white"/>
</clipPath>
</defs>
</svg>
