<svg width="351" height="21" viewBox="0 0 351 21" fill="none" xmlns="http://www.w3.org/2000/svg">
<path d="M336.867 4.2524L337.115 4.0698C331.557 3.72955 328.06 3.69432 324.244 4.66536C323.899 4.05581 322.527 4.11354 321.153 4.22662C319.47 3.60399 317.002 2.89397 313.55 2.0834L313.737 1.90374C309.929 1.53464 307.405 1.44678 304.812 2.12862C304.068 1.98687 303.293 1.84352 302.46 1.6956L302.691 1.51355C298.206 1.21508 295.157 1.14914 292.113 1.7571C292.2 1.64228 292.344 1.5149 292.706 1.50061C291.856 1.57264 290.861 1.66745 290.032 1.68087C289.695 1.59215 289.26 1.57512 288.787 1.58992C288.529 1.52573 288.361 1.42465 288.328 1.27063C285.324 1.40938 281.488 1.32096 278.519 1.6158C277.564 1.57151 276.623 1.60662 275.713 1.85108C275.829 1.76109 275.891 1.45607 276.593 1.42527C274.37 1.60424 271.333 1.90335 271.158 1.2623C265.848 1.52471 258.431 1.35665 255.041 2.44445L255.272 2.26171C253.342 2.99037 252.763 2.40907 250.6 2.79967C250.481 2.71743 250.326 2.67659 250.35 2.64056C249.721 2.85713 248.915 2.96161 248.051 3.01302C247.387 2.89786 246.67 2.82056 245.755 3.00827L245.67 2.53057C242.98 3.41601 240.588 1.92473 238.799 2.76656C236.023 3.17362 236.933 1.35588 234.044 2.30471L232.918 1.66383C231.681 1.56473 232.034 2.46003 230.661 2.15349C230.744 1.74544 228.926 1.83664 229.729 1.44645C226.622 0.824437 223.429 2.38053 219.336 1.32306C218.45 2.11925 216.39 1.65773 215.729 2.25609C215.618 1.91079 211.603 2.22215 213.913 1.46021C214.111 1.39751 214.462 1.40773 214.438 1.54218L214.713 1.07137C212.378 0.196301 210.476 1.58195 208.168 1.45681C208.852 1.60904 209.763 1.56277 209.155 1.88886L207.01 1.83605L207.455 1.43763L204.26 1.22363L204.701 1.71091C203.137 1.46781 202.584 0.637279 200.824 1.34264C200.028 1.73424 202.307 1.99447 200.658 2.15668C198.567 1.83435 195.433 1.35223 192.764 1.22225C193.016 1.77231 192.298 1.75582 191.559 1.87313L191.472 1.39542C188.643 2.07749 190.429 0.349229 187.621 0.895456L187.129 1.56484C184.598 2.52941 185.757 0.579652 182.945 1.89608C184.059 1.80627 183.476 2.94652 182.103 2.74933L182.448 2.28453C181.69 2.38802 181.437 2.5829 180.932 2.49151C181.382 2.23871 181.167 1.8181 180.052 1.90516L180.796 1.32112L178.894 2.10397C178.499 2.04898 178.11 2.02138 177.731 2.02938C176.189 1.90128 174.362 2.22955 173.81 1.69973C173.81 1.69973 170.306 1.4061 169.507 2.12983C170.208 1.68008 168.276 1.52983 168.822 1.0044C167.918 1.51477 165.241 1.95129 164.163 1.42765L164.366 1.36566C160.392 0.861328 157.585 2.173 154.018 1.55836C154.185 2.11187 152.301 1.83213 152.772 2.53629C150.22 3.05442 147.969 2.20051 146.392 2.36669L146.528 2.21329L146.391 2.36669C145.718 2.43735 145.17 2.69829 144.773 3.3267C144.526 3.29541 144.183 3.30506 143.718 3.36844C143.662 3.36049 143.615 3.3485 143.564 3.33854C142.829 3.19686 142.482 2.86613 141.869 2.79648L142.268 2.67448C139.129 2.90172 138.218 2.93637 135.884 2.92107C135.114 3.07436 134.769 3.56855 134.024 3.82659C133.58 3.79992 133.118 3.7984 132.657 3.80646C132.864 3.57296 132.161 3.63449 131.499 3.64441C131.997 3.57308 132.15 3.42254 131.121 3.16582C130.978 3.29389 130.756 3.37418 130.549 3.44161C130.54 3.40942 130.499 3.38586 130.519 3.34228C129.218 3.50513 129.447 3.62787 130.052 3.67424C130.033 3.71578 130.053 3.76515 130.122 3.82514C129.673 3.79228 129.315 3.71501 129.105 3.55552C129.105 3.55552 127.821 3.48476 126.489 3.53667C126.403 3.48542 126.344 3.41868 126.322 3.33103C125.404 3.38612 124.552 3.4718 123.737 3.5728C123.432 3.42009 123.17 3.25405 123.435 3.02646C123.287 3.09981 123.085 3.16864 122.862 3.2339C122.772 3.1464 122.762 3.04654 122.916 2.92608C122.301 3.21315 121.019 3.48277 119.768 3.58313C119.246 3.55586 118.775 3.47909 118.45 3.32144L118.668 3.26504C114.436 2.64936 111.406 3.89233 107.612 3.16728C107.744 3.61252 106.499 3.49082 106.234 3.78607C105.689 3.76682 105.135 3.72563 104.564 3.65014C104.577 3.68441 104.58 3.71587 104.575 3.74454C103.819 3.61295 102.815 3.75076 101.799 3.95067C100.156 3.70355 98.8255 3.49986 97.9528 4.34945L97.9306 4.1996C97.8917 4.36811 97.5827 4.48943 97.1924 4.58688C96.8655 4.55701 96.5491 4.53201 96.249 4.51807C96.5739 4.44404 96.8932 4.3645 96.97 4.22704C96.234 4.25894 95.7586 4.27918 95.4136 4.29429C95.1616 4.18367 94.9188 4.08202 94.6096 4.0393L95.0382 3.93053C91.6804 4.05425 90.7059 4.05971 88.2145 3.96801C86.9672 4.16134 86.7561 5.17733 84.5303 4.89427C85.2579 4.50077 84.3452 4.56139 83.5111 4.54742C84.0448 4.49277 84.2123 4.34644 83.1218 4.05644C82.9658 4.17962 82.7266 4.25227 82.5023 4.31273C82.4934 4.28054 82.4503 4.2556 82.4733 4.21204C81.0794 4.33248 81.3199 4.46214 81.9652 4.52863C81.9315 4.59057 81.9847 4.67026 82.1828 4.78592C80.7466 4.23901 78.1555 4.75479 77.9917 4.05574C73.8041 4.14776 70.8018 4.81687 67.3151 5.02981C66.9292 4.66529 67.7481 4.36134 68.761 4.23931L66.288 4.32955C66.3168 3.81447 67.7122 4.05693 68.4742 3.96646C65.5448 3.08475 62.3965 4.69723 58.9595 3.87652L58.2377 4.27211L58.0328 4.20151C58.0404 4.41753 57.262 4.69718 56.7495 4.75815C56.2686 4.30132 56.7993 3.7245 55.0911 3.7236C53.7477 3.26831 51.2508 3.87708 49.4794 4.0896C50.4312 4.18102 50.1198 4.42533 49.7072 4.57592C48.8531 4.57683 48.368 4.12065 47.7058 4.30279L47.6493 3.83147C47.5241 4.27199 45.3653 4.29495 45.0732 4.51618C44.5938 4.05936 46.4039 4.15195 46.6225 3.81739C43.1969 3.81756 44.9101 3.81713 41.4859 3.81664C39.652 4.24259 41.8094 4.39459 40.9272 4.91127C39.3125 5.00336 37.7323 5.39916 35.887 5.00423L36.4649 5.54996C33.4281 5.91673 31.6166 5.82481 29.5835 5.24732C26.7213 5.75349 24.5074 6.22571 22.8199 6.6651C17.1064 7.27498 14.7761 7.96843 14.3091 8.64484C14.2426 8.63134 14.1768 8.62125 14.1097 8.60707C-12.029 13.4447 8.67332 14.6838 8.67332 14.6838C10.901 14.9013 12.8876 14.9891 14.7678 14.9954C13.7537 15.7243 14.5611 16.2643 15.9865 16.6546C12.1575 18.7334 22.5669 19.6982 22.5669 19.6982C32.4828 21.0146 37.6248 19.4914 49.4414 19.1685C59.8245 19.5092 62.5741 20.5644 73.3401 20.1911C78.4738 20.2916 83.9527 20.0681 88.9712 19.9579C91.3548 19.1514 95.5602 19.9556 98.3792 19.2782L99.4705 19.7397C100.442 19.5081 101.582 19.3515 102.558 19.6023L102.496 19.7358C103.948 19.3882 105.583 19.599 106.304 19.4249L106.244 19.5597L108.006 19.5023L107.703 19.6933C110.233 19.3261 112.84 19.2991 115.136 19.4685L114.947 18.9108C119.858 19.5337 121.655 18.3769 126.087 19.1165L126.027 19.2513C131.63 17.7774 134.883 20.2451 140.658 18.8436C139.938 19.0185 140.967 19.1303 140.909 19.2659C143.568 19.1039 146.409 19.0172 146.451 17.922C148.389 17.935 148.029 18.263 148.281 18.6859C148.27 18.2054 149.954 18.0038 151.466 17.9717L150.77 18.1584L155.106 17.9889L154.474 17.317C154.575 17.27 154.66 17.2166 154.735 17.1598C156.29 17.4746 155.019 18.1707 157.041 17.9656L157.02 17.4057C157.052 17.3417 157.114 17.2841 157.211 17.2322C160.266 17.4144 162.125 18.5052 165.136 19.0424C165.706 19.0557 166.279 19.0601 166.852 19.0645C167.792 19.3117 168.626 19.4241 168.626 19.4241C174.458 20.5907 177.465 19.014 184.404 18.5687C190.505 18.8161 192.125 19.8531 198.447 19.4051C200.291 19.4501 202.206 19.3706 204.092 19.2731L204.102 19.2848C204.202 19.643 204.838 19.4579 205.56 19.197C206.259 19.1586 206.953 19.121 207.629 19.0893C208.233 18.7351 209.042 18.686 209.896 18.6844C210.054 18.7642 210.081 18.8478 209.744 18.9388C210.88 18.9668 211.035 18.8634 211.701 18.6656C211.83 18.6577 211.954 18.6395 212.08 18.6248L213.351 19.0986C218.401 19.4978 222.696 18.5018 228.011 18.7103C234.392 19.7629 246.41 18.8143 253.336 18.2848C263.075 17.0759 274.374 20.4225 284.343 19.0822C284.667 19.2015 285.507 18.9463 285.502 18.8519L294.617 19.0454C294.617 19.0454 297.379 19.0838 300.999 19.0462C304.619 19.0127 309.096 18.8921 312.527 18.5455C314.184 18.3779 315.593 18.1577 316.547 17.8692C318.564 18.0796 320.557 18.1141 322.463 17.6484C322.654 17.764 323.146 17.4999 323.142 17.4056L328.503 17.5017C328.503 17.5017 353.533 17.7102 335.787 11.3353C336.881 11.0718 337.75 10.7921 338.3 10.4977C349.575 9.81261 360.579 8.16174 336.867 4.2524Z" fill="#D1132C"/>
</svg>
